<svg xmlns="http://www.w3.org/2000/svg" xmlns:xlink="http://www.w3.org/1999/xlink" width="500" zoomAndPan="magnify" viewBox="0 0 375 374.999991" height="500" preserveAspectRatio="xMidYMid meet" version="1.0"><defs><g/><clipPath id="258367bce1"><path d="M 69.914062 120.65625 L 132.914062 120.65625 L 132.914062 270.179688 L 69.914062 270.179688 Z M 69.914062 120.65625 " clip-rule="nonzero"/></clipPath></defs><g clip-path="url(#258367bce1)"><path fill="#0f0e0c" d="M 132.886719 140.414062 C 131.425781 137.980469 129.269531 136.167969 126.703125 135.097656 C 126.671875 134 126.5625 132.90625 126.382812 131.816406 C 126.382812 131.804688 126.382812 131.789062 126.378906 131.777344 C 126.34375 131.570312 126.300781 131.351562 126.230469 131.132812 C 126.140625 130.832031 125.996094 130.539062 125.753906 130.296875 C 125.4375 129.988281 125.085938 129.847656 124.722656 129.828125 C 124.8125 126.6875 123.828125 123.398438 122.234375 120.773438 C 122.101562 120.550781 121.632812 120.667969 121.75 120.941406 C 123.082031 123.945312 123.65625 126.800781 123.933594 129.933594 C 123.691406 130.007812 123.449219 130.117188 123.214844 130.242188 C 122.773438 127.46875 121.519531 124.71875 119.566406 122.90625 C 119.449219 122.800781 119.085938 122.867188 119.199219 123.070312 C 120.179688 124.800781 121.207031 126.394531 121.789062 128.324219 C 122.039062 129.144531 122.210938 129.972656 122.335938 130.808594 C 122.230469 130.886719 122.128906 130.964844 122.03125 131.035156 C 120.347656 127.980469 117.25 125.644531 113.949219 124.6875 C 113.695312 124.613281 113.429688 124.9375 113.738281 125.058594 C 117.113281 126.378906 119.492188 128.714844 121.148438 131.675781 C 118.566406 133.3125 115.335938 133.304688 111.914062 133.296875 C 108.441406 133.285156 104.84375 133.277344 101.933594 135.144531 C 100.382812 136.140625 99.183594 137.585938 98.019531 138.984375 C 96.523438 140.78125 95.113281 142.480469 93.058594 143.214844 C 92.851562 143.292969 92.640625 143.355469 92.425781 143.417969 C 91.675781 143.648438 90.902344 143.882812 90.320312 144.496094 C 89.242188 145.640625 89.535156 147.503906 90.4375 148.644531 C 90.730469 149.011719 91.082031 149.34375 91.511719 149.652344 C 91.527344 149.664062 91.542969 149.675781 91.558594 149.683594 C 90.839844 150.636719 90.324219 151.644531 90.027344 152.699219 C 89.933594 153.023438 89.863281 153.351562 89.816406 153.675781 C 89.527344 155.683594 90.0625 157.691406 91.296875 159.085938 C 91.988281 159.871094 92.921875 160.480469 94.007812 160.875 C 92.949219 164.015625 90.527344 166.691406 88.183594 169.285156 C 87.523438 170.011719 86.84375 170.761719 86.207031 171.511719 C 77.917969 181.234375 74.316406 195.054688 76.765625 207.644531 C 76.144531 208.234375 75.5625 208.851562 75.019531 209.5 C 74.847656 209.699219 74.683594 209.902344 74.523438 210.105469 C 73.140625 211.867188 72.039062 213.808594 71.261719 215.851562 C 71.152344 216.136719 71.046875 216.429688 70.953125 216.722656 C 70.570312 217.867188 70.292969 219.046875 70.117188 220.238281 C 69.933594 221.511719 69.875 222.800781 69.941406 224.070312 C 69.953125 224.332031 69.972656 224.589844 70 224.847656 C 70.164062 226.707031 70.59375 228.527344 71.261719 230.246094 C 71.339844 230.453125 71.425781 230.660156 71.515625 230.863281 C 72.304688 232.710938 73.378906 234.421875 74.714844 235.914062 C 74.765625 235.96875 74.816406 236.027344 74.867188 236.082031 C 75.027344 236.257812 75.191406 236.425781 75.351562 236.589844 C 77.210938 238.46875 79.410156 239.925781 81.710938 241.214844 C 81.898438 241.320312 82.085938 241.421875 82.273438 241.523438 C 83.492188 242.1875 84.730469 242.808594 85.957031 243.425781 C 86.914062 243.902344 87.882812 244.390625 88.839844 244.894531 C 89.109375 245.035156 89.375 245.179688 89.640625 245.320312 C 90.695312 245.894531 91.726562 246.496094 92.714844 247.148438 C 93.199219 247.472656 93.675781 247.804688 94.140625 248.160156 C 94.390625 248.34375 94.636719 248.535156 94.878906 248.730469 C 96.300781 249.871094 97.617188 251.140625 98.808594 252.515625 C 99.027344 252.757812 99.234375 253.003906 99.433594 253.257812 C 100.414062 254.449219 101.304688 255.71875 102.09375 257.050781 C 102.253906 257.316406 102.40625 257.582031 102.554688 257.847656 C 103.226562 259.046875 103.820312 260.292969 104.335938 261.574219 C 104.453125 261.882812 104.570312 262.1875 104.683594 262.496094 C 105.535156 264.835938 106.113281 267.285156 106.382812 269.785156 C 106.40625 269.992188 106.574219 270.15625 106.78125 270.179688 C 106.796875 270.179688 106.816406 270.179688 106.832031 270.179688 C 107.023438 270.179688 107.195312 270.058594 107.257812 269.875 C 107.96875 267.75 108.210938 265.421875 108.015625 263.046875 C 107.992188 262.757812 107.960938 262.46875 107.925781 262.175781 C 107.722656 260.617188 107.335938 259.046875 106.769531 257.507812 C 106.679688 257.253906 106.578125 257 106.472656 256.75 C 106.019531 255.640625 105.46875 254.546875 104.824219 253.492188 C 104.550781 253.039062 104.257812 252.597656 103.957031 252.167969 C 103.789062 251.917969 103.613281 251.675781 103.433594 251.4375 C 101.902344 249.382812 100.125 247.574219 98.3125 246.003906 C 98.042969 245.769531 97.769531 245.539062 97.496094 245.316406 C 95.625 243.761719 93.746094 242.460938 92.09375 241.390625 C 91.847656 241.230469 91.609375 241.078125 91.375 240.929688 C 91.324219 240.894531 91.277344 240.867188 91.222656 240.832031 C 90.542969 240.398438 89.851562 239.976562 89.164062 239.554688 C 88.148438 238.929688 87.117188 238.292969 86.101562 237.628906 C 85.839844 237.460938 85.582031 237.289062 85.324219 237.113281 C 83.976562 236.203125 82.675781 235.230469 81.476562 234.144531 C 81.265625 233.953125 81.058594 233.757812 80.855469 233.558594 C 80.640625 233.351562 80.433594 233.140625 80.238281 232.925781 C 79.140625 231.757812 78.242188 230.527344 77.554688 229.265625 C 77.417969 229.015625 77.289062 228.761719 77.171875 228.507812 C 76.671875 227.441406 76.324219 226.359375 76.136719 225.285156 C 76.09375 225.023438 76.054688 224.757812 76.027344 224.496094 C 76.015625 224.367188 76.007812 224.238281 76 224.109375 C 75.929688 222.953125 76.089844 221.804688 76.433594 220.726562 C 76.535156 220.410156 76.652344 220.101562 76.785156 219.800781 C 77.433594 218.3125 78.449219 217.027344 79.695312 216.171875 C 79.960938 215.988281 80.234375 215.824219 80.515625 215.6875 C 80.601562 215.644531 80.691406 215.601562 80.777344 215.5625 C 80.851562 215.648438 80.925781 215.734375 81.003906 215.816406 C 81.074219 215.890625 81.144531 215.957031 81.214844 216.023438 C 81.355469 216.15625 81.5 216.277344 81.648438 216.394531 C 81.742188 216.460938 81.835938 216.53125 81.933594 216.597656 C 82.316406 216.851562 82.71875 217.0625 83.132812 217.238281 C 84.359375 217.765625 85.683594 217.976562 86.871094 218.113281 C 90.03125 218.476562 93.285156 218.433594 96.425781 218.386719 C 101.386719 218.316406 106.511719 218.246094 111.226562 219.816406 L 111.378906 219.863281 C 111.960938 220.0625 112.566406 220.265625 113.226562 220.214844 C 113.828125 220.171875 114.484375 219.855469 114.808594 219.3125 C 114.910156 219.148438 114.984375 218.96875 115.011719 218.769531 C 115.011719 218.757812 115.015625 218.746094 115.015625 218.738281 C 115.226562 218.785156 115.4375 218.832031 115.644531 218.875 C 116.066406 218.960938 116.488281 219.039062 116.910156 219.101562 C 117.195312 219.148438 118.167969 219.253906 118.808594 218.78125 C 119.078125 218.582031 119.246094 218.304688 119.292969 217.976562 C 119.363281 217.464844 119.09375 217.023438 118.882812 216.738281 C 118.132812 215.703125 117.085938 214.953125 116.367188 214.480469 C 114.246094 213.085938 111.820312 212.105469 109.28125 211.601562 C 108.308594 211.398438 107.316406 211.273438 106.320312 211.222656 C 106.242188 211.214844 106.160156 211.210938 106.082031 211.207031 C 106.152344 211.136719 106.21875 211.066406 106.285156 210.992188 C 107.917969 209.25 109.230469 207.136719 110.117188 204.808594 C 111.652344 200.785156 112.046875 196.070312 111.277344 190.789062 C 111.214844 190.339844 111.136719 189.886719 111.066406 189.429688 C 110.839844 188.011719 110.597656 186.546875 110.617188 185.109375 C 110.632812 183.734375 110.878906 182.320312 111.351562 180.789062 C 111.902344 180.851562 112.457031 180.828125 113 180.699219 L 114.660156 180.667969 C 117.351562 180.617188 120.273438 181.21875 121.253906 182.945312 C 121.425781 183.253906 121.542969 183.597656 121.578125 183.980469 C 121.621094 184.382812 121.582031 184.824219 121.542969 185.292969 C 121.5 185.742188 121.457031 186.222656 121.503906 186.683594 C 121.523438 186.890625 121.558594 187.097656 121.621094 187.296875 C 121.726562 187.617188 121.902344 187.917969 122.183594 188.183594 C 122.632812 188.597656 123.242188 188.757812 123.90625 188.640625 C 124.71875 188.496094 125.476562 187.941406 125.835938 187.230469 C 126.472656 185.992188 126.195312 184.558594 125.886719 183.453125 C 124.621094 178.921875 121.753906 175.082031 118.980469 171.363281 C 117.875 169.882812 116.734375 168.355469 115.714844 166.804688 C 115.128906 165.914062 114.484375 164.871094 114.308594 163.746094 C 114.097656 162.421875 114.484375 160.960938 115.535156 159.136719 C 116.621094 157.253906 118.035156 155.523438 119.398438 153.84375 C 120.578125 152.390625 121.800781 150.890625 122.828125 149.277344 C 124.230469 147.074219 125.269531 144.648438 125.914062 142.117188 C 126.164062 142.613281 126.398438 143.117188 126.617188 143.640625 C 127.699219 146.277344 128.320312 148.992188 128.894531 151.769531 C 128.960938 152.085938 129.503906 152.003906 129.492188 151.6875 C 129.355469 148.050781 128.179688 144.015625 126.257812 140.589844 C 126.285156 140.460938 126.308594 140.324219 126.332031 140.195312 C 126.347656 140.140625 126.359375 140.085938 126.371094 140.027344 C 126.382812 139.992188 126.382812 139.957031 126.378906 139.929688 C 126.441406 139.535156 126.5 139.136719 126.542969 138.742188 C 127.128906 139.4375 127.6875 140.15625 128.21875 140.894531 C 129.40625 142.542969 130.320312 144.359375 131.472656 146.023438 C 131.640625 146.265625 132.140625 146.144531 132.023438 145.816406 C 130.992188 142.882812 128.902344 140.085938 126.640625 137.726562 C 126.691406 137.097656 126.714844 136.46875 126.714844 135.835938 C 128.90625 136.976562 130.78125 138.632812 132.238281 140.675781 C 132.4375 140.960938 133.097656 140.761719 132.886719 140.414062 " fill-opacity="1" fill-rule="nonzero"/><path fill="#0f0e0c" d="M 112.898438 139.347656 C 113.273438 139.804688 113.199219 140.488281 112.742188 140.859375 L 112.671875 140.910156 C 112.214844 141.28125 111.53125 141.210938 111.160156 140.753906 L 109.785156 139.0625 C 109.414062 138.605469 109.488281 137.925781 109.945312 137.554688 L 110.015625 137.5 C 110.472656 137.128906 111.152344 137.203125 111.527344 137.660156 Z M 125.792969 136.875 C 125.355469 136.445312 124.914062 136.035156 124.476562 135.640625 C 124.273438 135.457031 123.78125 135.683594 124.023438 135.933594 C 124.605469 136.542969 125.179688 137.160156 125.738281 137.792969 C 125.695312 138.335938 125.632812 138.871094 125.550781 139.410156 C 124.835938 138.292969 124.035156 137.257812 123.164062 136.351562 C 122.992188 136.175781 122.46875 136.34375 122.636719 136.621094 C 123.445312 137.917969 124.273438 139.171875 125.027344 140.476562 C 124.546875 140.996094 124 141.429688 123.261719 141.589844 C 121.914062 141.882812 120.960938 141.125 120.003906 140.292969 C 119.867188 140.175781 119.410156 140.207031 119.492188 140.476562 C 120.199219 142.761719 123.226562 143.109375 125.042969 141.917969 C 124.414062 144.347656 123.417969 146.683594 122.070312 148.796875 C 121.070312 150.367188 119.867188 151.847656 118.699219 153.277344 C 117.3125 154.984375 115.878906 156.746094 114.753906 158.691406 C 113.597656 160.699219 113.175781 162.351562 113.417969 163.886719 C 113.625 165.1875 114.324219 166.328125 114.960938 167.296875 C 115.996094 168.867188 117.148438 170.410156 118.257812 171.898438 C 120.980469 175.550781 123.796875 179.324219 125.019531 183.695312 C 125.289062 184.644531 125.527344 185.859375 125.03125 186.828125 C 124.800781 187.289062 124.285156 187.664062 123.746094 187.757812 C 123.480469 187.804688 123.097656 187.804688 122.792969 187.523438 C 122.726562 187.464844 122.675781 187.398438 122.628906 187.332031 C 122.835938 187.289062 123.035156 187.21875 123.230469 187.117188 C 123.722656 186.855469 124.410156 186.246094 124.199219 185.621094 C 124.117188 185.378906 123.75 185.316406 123.582031 185.523438 C 123.324219 185.839844 123.175781 186.230469 122.832031 186.46875 C 122.699219 186.5625 122.550781 186.636719 122.402344 186.675781 C 122.351562 186.292969 122.394531 185.851562 122.4375 185.367188 C 122.480469 184.882812 122.527344 184.378906 122.476562 183.886719 C 122.445312 183.597656 122.351562 183.117188 122.058594 182.585938 C 121.355469 181.289062 119.5 179.683594 114.644531 179.773438 L 112.226562 179.8125 C 110.898438 179.535156 109.667969 179.265625 108.464844 178.40625 C 107.089844 177.421875 106.253906 176.070312 105.574219 174.5625 C 105.453125 174.292969 104.914062 174.421875 104.957031 174.726562 C 105.328125 177.25 107.773438 179.878906 110.464844 180.621094 C 109.980469 182.195312 109.734375 183.660156 109.71875 185.097656 C 109.699219 186.613281 109.941406 188.117188 110.179688 189.574219 C 110.25 190.023438 110.324219 190.46875 110.390625 190.917969 C 111.132812 196.046875 110.761719 200.613281 109.28125 204.492188 C 108.265625 207.144531 106.679688 209.503906 104.683594 211.308594 C 104.644531 211.34375 104.617188 211.382812 104.59375 211.425781 C 101.425781 213.105469 97.785156 213.503906 94.3125 212.4375 C 93.914062 212.3125 93.566406 212.84375 94.027344 213.015625 C 97.699219 214.410156 101.808594 214.085938 105.144531 212.085938 L 105.238281 212.085938 C 106.539062 212.085938 107.839844 212.21875 109.109375 212.472656 C 111.53125 212.957031 113.851562 213.898438 115.875 215.230469 C 116.9375 215.929688 117.640625 216.558594 118.15625 217.265625 C 118.34375 217.519531 118.425781 217.710938 118.402344 217.851562 C 118.390625 217.941406 118.351562 218.007812 118.269531 218.0625 C 118.039062 218.234375 117.550781 218.296875 117.046875 218.21875 C 116.246094 218.09375 115.4375 217.929688 114.65625 217.722656 C 112.53125 215.601562 109.375 214.332031 106.488281 214.167969 C 106.226562 214.152344 105.980469 214.535156 106.324219 214.613281 C 109.46875 215.316406 111.820312 216.710938 114.109375 218.691406 C 114.011719 219.050781 113.5625 219.292969 113.164062 219.320312 C 112.679688 219.355469 112.1875 219.1875 111.664062 219.015625 L 111.511719 218.964844 C 106.652344 217.347656 101.449219 217.421875 96.414062 217.492188 C 93.300781 217.539062 90.078125 217.582031 86.972656 217.222656 C 85.488281 217.054688 83.785156 216.757812 82.4375 215.851562 C 82.253906 215.730469 82.078125 215.589844 81.910156 215.441406 C 81.808594 215.25 81.710938 215.050781 81.628906 214.84375 C 81.230469 213.878906 81.167969 212.921875 81.042969 211.902344 C 81.011719 211.625 80.578125 211.691406 80.507812 211.910156 C 80.234375 212.789062 80.269531 213.769531 80.546875 214.6875 C 80.210938 214.824219 79.890625 214.988281 79.578125 215.175781 C 77.6875 214.0625 76.179688 212.609375 75.351562 210.511719 C 76.023438 209.667969 76.761719 208.875 77.5625 208.125 C 77.675781 208.023438 77.730469 207.863281 77.699219 207.710938 C 75.203125 195.320312 78.726562 181.671875 86.890625 172.089844 C 87.519531 171.351562 88.195312 170.605469 88.851562 169.882812 C 91.289062 167.191406 93.804688 164.410156 94.898438 161.039062 C 99.953125 161.976562 104.9375 157.671875 105.382812 152.648438 C 105.40625 152.402344 104.996094 152.375 104.941406 152.601562 C 104.425781 154.753906 103.238281 156.757812 101.5 158.160156 C 99.386719 159.863281 96.890625 160.171875 94.289062 160.023438 C 93.355469 159.683594 92.558594 159.160156 91.972656 158.496094 C 90.734375 157.09375 90.320312 154.96875 90.890625 152.945312 C 91.09375 152.222656 91.414062 151.523438 91.839844 150.851562 C 91.84375 150.847656 91.847656 150.84375 91.851562 150.839844 C 92.109375 150.511719 92.375 150.191406 92.652344 149.875 C 94.289062 148.007812 96.191406 146.351562 98.167969 144.859375 C 98.398438 144.6875 98.128906 144.46875 97.921875 144.585938 C 95.863281 145.691406 93.839844 147.199219 92.125 148.988281 C 91.726562 148.710938 91.402344 148.414062 91.140625 148.089844 C 90.488281 147.265625 90.242188 145.894531 90.976562 145.109375 C 91.390625 144.671875 92.023438 144.480469 92.691406 144.277344 C 92.914062 144.207031 93.140625 144.140625 93.359375 144.058594 C 95.644531 143.242188 97.203125 141.367188 98.710938 139.554688 C 99.828125 138.210938 100.988281 136.820312 102.417969 135.898438 C 104.917969 134.292969 108.082031 134.1875 111.207031 134.1875 C 111.445312 134.1875 111.675781 134.191406 111.914062 134.191406 C 114.933594 134.199219 118.039062 134.207031 120.664062 132.960938 C 121.085938 133.207031 121.554688 133.382812 122.039062 133.476562 C 122.21875 133.515625 122.394531 133.539062 122.578125 133.554688 C 122.734375 133.570312 122.890625 133.578125 123.046875 133.570312 C 123.148438 133.570312 123.246094 133.566406 123.34375 133.558594 C 124.175781 133.5 124.980469 133.21875 125.609375 132.707031 C 125.699219 133.386719 125.765625 134.074219 125.792969 134.757812 C 125.46875 134.648438 125.144531 134.554688 124.8125 134.464844 C 124.496094 134.382812 124.179688 134.792969 124.566406 134.925781 C 124.992188 135.070312 125.40625 135.226562 125.8125 135.410156 C 125.820312 135.898438 125.816406 136.386719 125.792969 136.875 Z M 75.941406 219.441406 C 74.464844 218.738281 73.175781 217.714844 71.960938 216.546875 C 72.652344 214.625 73.632812 212.792969 74.882812 211.117188 C 75.667969 212.992188 77.03125 214.699219 78.78125 215.71875 C 77.5625 216.660156 76.582031 217.953125 75.941406 219.441406 Z M 76.402344 228.984375 C 75.121094 229.703125 73.710938 230.144531 72.222656 230.234375 C 71.570312 228.636719 71.136719 226.945312 70.933594 225.210938 C 72.335938 225.660156 73.832031 225.757812 75.261719 225.492188 C 75.46875 226.660156 75.855469 227.835938 76.402344 228.984375 Z M 79.625 233.585938 C 78.578125 234.625 77.3125 235.410156 75.875 235.839844 C 75.707031 235.671875 75.546875 235.496094 75.382812 235.316406 C 74.199219 233.992188 73.230469 232.488281 72.496094 230.863281 C 73.996094 230.792969 75.472656 230.410156 76.785156 229.722656 C 77.511719 231.058594 78.464844 232.355469 79.625 233.585938 Z M 80.871094 234.808594 C 82.136719 235.953125 83.511719 236.976562 84.929688 237.921875 C 84.34375 238.988281 83.542969 239.914062 82.550781 240.65625 C 80.328125 239.433594 78.195312 238.074219 76.390625 236.347656 C 77.820312 235.933594 79.152344 235.203125 80.230469 234.203125 C 80.4375 234.40625 80.652344 234.609375 80.871094 234.808594 Z M 85.695312 238.433594 C 86.691406 239.082031 87.695312 239.703125 88.691406 240.316406 C 89.410156 240.761719 90.132812 241.199219 90.839844 241.652344 C 90.414062 242.539062 89.949219 243.378906 89.390625 244.171875 C 88.382812 243.636719 87.363281 243.125 86.359375 242.625 C 85.316406 242.097656 84.257812 241.570312 83.214844 241.011719 C 84.234375 240.355469 85.089844 239.46875 85.695312 238.433594 Z M 91.753906 242.242188 C 93.359375 243.285156 95.175781 244.550781 96.980469 246.050781 C 96.4375 246.738281 95.792969 247.308594 95.058594 247.730469 C 94.460938 247.261719 93.84375 246.820312 93.210938 246.402344 C 92.253906 245.769531 91.253906 245.183594 90.238281 244.632812 C 90.84375 243.894531 91.367188 243.09375 91.753906 242.242188 Z M 97.789062 246.738281 C 99.476562 248.207031 101.132812 249.882812 102.5625 251.773438 C 101.695312 252.078125 100.808594 252.292969 99.90625 252.414062 C 98.667969 250.925781 97.292969 249.550781 95.796875 248.320312 C 96.558594 247.917969 97.242188 247.382812 97.789062 246.738281 Z M 104.058594 253.953125 C 104.648438 254.921875 105.15625 255.917969 105.578125 256.933594 C 104.777344 257.070312 103.976562 257.136719 103.179688 257.121094 C 102.386719 255.734375 101.492188 254.410156 100.511719 253.15625 C 101.402344 253.042969 102.277344 252.832031 103.113281 252.519531 C 103.445312 252.988281 103.757812 253.464844 104.058594 253.953125 Z M 107.007812 262.109375 C 106.46875 262.058594 105.933594 261.972656 105.40625 261.855469 C 104.894531 260.5 104.300781 259.179688 103.617188 257.910156 C 104.378906 257.925781 105.140625 257.863281 105.890625 257.714844 C 106.433594 259.167969 106.808594 260.644531 107.007812 262.109375 Z M 106.949219 267.417969 C 106.660156 265.835938 106.25 264.277344 105.730469 262.761719 C 106.1875 262.859375 106.644531 262.933594 107.105469 262.984375 C 107.246094 264.496094 107.195312 265.988281 106.949219 267.417969 Z M 71.007812 220.363281 C 71.148438 219.386719 71.367188 218.421875 71.660156 217.472656 C 72.832031 218.660156 74.132812 219.71875 75.585938 220.390625 C 75.199219 221.582031 75.027344 222.863281 75.105469 224.164062 C 75.117188 224.347656 75.128906 224.535156 75.152344 224.722656 C 73.730469 225.011719 72.261719 224.9375 70.867188 224.457031 C 70.765625 223.101562 70.8125 221.722656 71.007812 220.363281 Z M 132.886719 140.414062 C 131.425781 137.980469 129.269531 136.167969 126.703125 135.097656 C 126.671875 134 126.566406 132.90625 126.386719 131.816406 C 126.382812 131.804688 126.382812 131.789062 126.378906 131.777344 C 126.34375 131.570312 126.300781 131.351562 126.230469 131.132812 C 126.140625 130.832031 125.996094 130.539062 125.753906 130.296875 C 125.4375 129.988281 125.085938 129.847656 124.722656 129.828125 C 124.8125 126.6875 123.828125 123.398438 122.234375 120.773438 C 122.101562 120.550781 121.632812 120.667969 121.75 120.941406 C 123.082031 123.945312 123.65625 126.800781 123.933594 129.933594 C 123.691406 130.007812 123.449219 130.113281 123.21875 130.242188 C 122.773438 127.46875 121.519531 124.71875 119.566406 122.90625 C 119.449219 122.800781 119.085938 122.867188 119.199219 123.070312 C 120.179688 124.800781 121.207031 126.394531 121.789062 128.324219 C 122.039062 129.144531 122.210938 129.972656 122.335938 130.808594 C 122.230469 130.886719 122.128906 130.964844 122.03125 131.035156 C 120.347656 127.980469 117.25 125.644531 113.949219 124.6875 C 113.695312 124.613281 113.429688 124.933594 113.738281 125.058594 C 117.113281 126.378906 119.492188 128.714844 121.148438 131.675781 C 118.566406 133.3125 115.335938 133.304688 111.914062 133.296875 C 108.441406 133.285156 104.84375 133.277344 101.933594 135.144531 C 100.382812 136.140625 99.183594 137.585938 98.019531 138.984375 C 96.523438 140.78125 95.113281 142.480469 93.058594 143.214844 C 92.851562 143.289062 92.640625 143.355469 92.425781 143.417969 C 91.675781 143.648438 90.902344 143.882812 90.320312 144.496094 C 89.242188 145.640625 89.535156 147.503906 90.4375 148.644531 C 90.730469 149.011719 91.085938 149.34375 91.511719 149.652344 C 91.527344 149.664062 91.542969 149.671875 91.558594 149.683594 C 90.839844 150.636719 90.324219 151.644531 90.027344 152.699219 C 89.933594 153.019531 89.863281 153.351562 89.820312 153.675781 C 89.527344 155.683594 90.0625 157.691406 91.296875 159.085938 C 91.988281 159.871094 92.921875 160.480469 94.007812 160.875 C 92.953125 164.015625 90.527344 166.691406 88.183594 169.285156 C 87.523438 170.011719 86.84375 170.761719 86.207031 171.511719 C 77.921875 181.234375 74.316406 195.054688 76.765625 207.640625 C 76.144531 208.234375 75.5625 208.851562 75.019531 209.5 C 74.847656 209.699219 74.683594 209.902344 74.523438 210.105469 C 73.140625 211.867188 72.039062 213.808594 71.261719 215.847656 C 71.152344 216.136719 71.046875 216.429688 70.953125 216.722656 C 70.570312 217.867188 70.292969 219.046875 70.121094 220.238281 C 69.933594 221.511719 69.875 222.800781 69.941406 224.070312 C 69.953125 224.332031 69.972656 224.589844 70 224.847656 C 70.164062 226.707031 70.59375 228.527344 71.261719 230.246094 C 71.339844 230.453125 71.425781 230.660156 71.515625 230.863281 C 72.304688 232.710938 73.378906 234.421875 74.714844 235.914062 C 74.765625 235.96875 74.816406 236.027344 74.867188 236.082031 C 75.027344 236.257812 75.191406 236.425781 75.351562 236.589844 C 77.210938 238.46875 79.410156 239.925781 81.710938 241.214844 C 81.898438 241.320312 82.085938 241.421875 82.273438 241.523438 C 83.492188 242.1875 84.730469 242.808594 85.957031 243.425781 C 86.914062 243.902344 87.882812 244.390625 88.84375 244.894531 C 89.109375 245.035156 89.375 245.175781 89.640625 245.320312 C 90.695312 245.894531 91.726562 246.496094 92.714844 247.148438 C 93.199219 247.472656 93.675781 247.804688 94.140625 248.15625 C 94.390625 248.34375 94.636719 248.535156 94.878906 248.730469 C 96.300781 249.871094 97.617188 251.140625 98.808594 252.515625 C 99.027344 252.757812 99.234375 253.003906 99.433594 253.257812 C 100.414062 254.449219 101.304688 255.71875 102.097656 257.050781 C 102.253906 257.316406 102.40625 257.582031 102.554688 257.847656 C 103.226562 259.046875 103.824219 260.292969 104.335938 261.574219 C 104.453125 261.882812 104.570312 262.1875 104.683594 262.496094 C 105.535156 264.835938 106.113281 267.285156 106.386719 269.785156 C 106.40625 269.992188 106.574219 270.15625 106.785156 270.179688 C 106.796875 270.179688 106.816406 270.179688 106.832031 270.179688 C 107.023438 270.179688 107.195312 270.058594 107.257812 269.875 C 107.96875 267.75 108.210938 265.421875 108.015625 263.046875 C 107.992188 262.757812 107.960938 262.46875 107.925781 262.175781 C 107.722656 260.617188 107.339844 259.046875 106.769531 257.507812 C 106.679688 257.253906 106.578125 257 106.476562 256.75 C 106.019531 255.640625 105.472656 254.546875 104.828125 253.492188 C 104.550781 253.039062 104.261719 252.597656 103.957031 252.167969 C 103.789062 251.917969 103.613281 251.675781 103.433594 251.4375 C 101.902344 249.382812 100.125 247.574219 98.3125 246.003906 C 98.042969 245.769531 97.769531 245.539062 97.496094 245.316406 C 95.625 243.761719 93.746094 242.460938 92.09375 241.390625 C 91.847656 241.230469 91.609375 241.078125 91.375 240.925781 C 91.324219 240.894531 91.277344 240.863281 91.226562 240.832031 C 90.542969 240.398438 89.851562 239.976562 89.164062 239.554688 C 88.148438 238.929688 87.117188 238.292969 86.101562 237.628906 C 85.839844 237.460938 85.582031 237.285156 85.328125 237.113281 C 83.976562 236.203125 82.675781 235.230469 81.476562 234.144531 C 81.265625 233.949219 81.058594 233.757812 80.859375 233.558594 C 80.640625 233.351562 80.433594 233.140625 80.238281 232.921875 C 79.140625 231.757812 78.242188 230.527344 77.554688 229.265625 C 77.421875 229.015625 77.292969 228.761719 77.171875 228.507812 C 76.671875 227.441406 76.324219 226.359375 76.136719 225.285156 C 76.09375 225.019531 76.054688 224.757812 76.027344 224.496094 C 76.015625 224.367188 76.007812 224.238281 76 224.109375 C 75.929688 222.953125 76.089844 221.804688 76.433594 220.726562 C 76.535156 220.410156 76.652344 220.101562 76.785156 219.800781 C 77.433594 218.308594 78.449219 217.027344 79.695312 216.171875 L 79.699219 216.171875 C 79.960938 215.988281 80.234375 215.824219 80.515625 215.683594 C 80.601562 215.644531 80.691406 215.601562 80.777344 215.5625 C 80.851562 215.648438 80.925781 215.734375 81.003906 215.816406 C 81.078125 215.886719 81.144531 215.957031 81.21875 216.023438 C 81.355469 216.152344 81.5 216.277344 81.648438 216.394531 C 81.742188 216.460938 81.835938 216.53125 81.933594 216.597656 C 82.316406 216.851562 82.71875 217.0625 83.132812 217.238281 C 84.359375 217.765625 85.683594 217.976562 86.871094 218.113281 C 90.03125 218.476562 93.285156 218.433594 96.425781 218.386719 C 101.386719 218.316406 106.511719 218.246094 111.226562 219.816406 L 111.378906 219.863281 C 111.960938 220.0625 112.566406 220.265625 113.226562 220.214844 C 113.828125 220.171875 114.484375 219.855469 114.808594 219.3125 C 114.910156 219.148438 114.984375 218.96875 115.011719 218.765625 C 115.011719 218.757812 115.015625 218.746094 115.015625 218.738281 C 115.226562 218.785156 115.4375 218.832031 115.644531 218.875 C 116.066406 218.960938 116.488281 219.039062 116.910156 219.101562 C 117.195312 219.148438 118.167969 219.253906 118.808594 218.78125 C 119.078125 218.582031 119.246094 218.304688 119.292969 217.976562 C 119.367188 217.464844 119.09375 217.023438 118.882812 216.738281 C 118.132812 215.703125 117.085938 214.953125 116.367188 214.480469 C 114.246094 213.085938 111.820312 212.105469 109.28125 211.601562 C 108.308594 211.398438 107.316406 211.273438 106.320312 211.21875 C 106.242188 211.214844 106.160156 211.210938 106.082031 211.207031 C 106.152344 211.136719 106.21875 211.066406 106.285156 210.992188 C 107.917969 209.25 109.230469 207.136719 110.121094 204.808594 C 111.652344 200.785156 112.046875 196.070312 111.277344 190.789062 C 111.214844 190.339844 111.136719 189.882812 111.066406 189.429688 C 110.839844 188.011719 110.597656 186.546875 110.617188 185.109375 C 110.636719 183.734375 110.878906 182.320312 111.351562 180.789062 C 111.902344 180.851562 112.457031 180.828125 113 180.699219 L 114.660156 180.667969 C 117.351562 180.617188 120.273438 181.21875 121.253906 182.945312 C 121.425781 183.253906 121.542969 183.597656 121.582031 183.980469 C 121.621094 184.382812 121.582031 184.824219 121.542969 185.292969 C 121.5 185.742188 121.457031 186.222656 121.503906 186.683594 C 121.523438 186.890625 121.558594 187.097656 121.621094 187.296875 C 121.726562 187.617188 121.902344 187.917969 122.183594 188.183594 C 122.632812 188.597656 123.242188 188.757812 123.90625 188.640625 C 124.71875 188.496094 125.476562 187.941406 125.835938 187.230469 C 126.472656 185.988281 126.195312 184.558594 125.886719 183.453125 C 124.621094 178.921875 121.753906 175.082031 118.980469 171.363281 C 117.875 169.882812 116.734375 168.355469 115.714844 166.804688 C 115.128906 165.914062 114.484375 164.871094 114.308594 163.746094 C 114.097656 162.421875 114.484375 160.960938 115.535156 159.136719 C 116.625 157.253906 118.035156 155.519531 119.398438 153.84375 C 120.578125 152.390625 121.800781 150.890625 122.832031 149.277344 C 124.230469 147.074219 125.269531 144.648438 125.914062 142.117188 C 126.164062 142.613281 126.398438 143.117188 126.617188 143.640625 C 127.699219 146.273438 128.320312 148.992188 128.894531 151.769531 C 128.960938 152.085938 129.503906 152.003906 129.492188 151.6875 C 129.355469 148.050781 128.179688 144.015625 126.257812 140.589844 C 126.285156 140.460938 126.308594 140.324219 126.332031 140.195312 C 126.347656 140.140625 126.359375 140.085938 126.371094 140.027344 C 126.382812 139.992188 126.382812 139.957031 126.378906 139.929688 C 126.441406 139.535156 126.5 139.136719 126.542969 138.738281 C 127.128906 139.4375 127.6875 140.15625 128.21875 140.894531 C 129.40625 142.542969 130.320312 144.355469 131.472656 146.023438 C 131.640625 146.265625 132.140625 146.144531 132.027344 145.816406 C 130.992188 142.882812 128.902344 140.085938 126.640625 137.726562 C 126.691406 137.097656 126.714844 136.46875 126.714844 135.835938 C 128.910156 136.976562 130.78125 138.632812 132.238281 140.675781 C 132.4375 140.957031 133.097656 140.761719 132.886719 140.414062 " fill-opacity="1" fill-rule="nonzero"/></g><path fill="#f5deb3" d="M 70.863281 224.457031 C 70.765625 223.101562 70.8125 221.722656 71.007812 220.363281 C 71.148438 219.386719 71.367188 218.421875 71.660156 217.472656 C 72.832031 218.660156 74.132812 219.71875 75.585938 220.390625 C 75.199219 221.582031 75.023438 222.863281 75.101562 224.164062 C 75.113281 224.347656 75.128906 224.535156 75.152344 224.722656 C 73.730469 225.011719 72.257812 224.9375 70.863281 224.457031 Z M 76.402344 228.984375 C 75.121094 229.703125 73.710938 230.144531 72.222656 230.234375 C 71.570312 228.636719 71.136719 226.945312 70.933594 225.210938 C 72.335938 225.660156 73.832031 225.757812 75.261719 225.492188 C 75.46875 226.660156 75.855469 227.835938 76.402344 228.984375 Z M 75.941406 219.441406 C 74.464844 218.738281 73.175781 217.714844 71.960938 216.546875 C 72.652344 214.625 73.632812 212.792969 74.882812 211.117188 C 75.667969 212.992188 77.03125 214.699219 78.78125 215.71875 C 77.5625 216.660156 76.582031 217.957031 75.941406 219.441406 Z M 79.625 233.585938 C 78.578125 234.625 77.3125 235.410156 75.875 235.839844 C 75.707031 235.671875 75.546875 235.496094 75.382812 235.316406 C 74.199219 233.992188 73.230469 232.488281 72.496094 230.863281 C 73.992188 230.792969 75.472656 230.414062 76.785156 229.722656 C 77.511719 231.058594 78.464844 232.355469 79.625 233.585938 Z M 82.550781 240.65625 C 80.328125 239.433594 78.195312 238.074219 76.390625 236.347656 C 77.820312 235.933594 79.152344 235.203125 80.230469 234.207031 C 80.4375 234.410156 80.652344 234.609375 80.871094 234.808594 C 82.136719 235.957031 83.511719 236.976562 84.929688 237.921875 C 84.34375 238.988281 83.542969 239.914062 82.550781 240.65625 Z M 90.839844 241.652344 C 90.414062 242.539062 89.949219 243.378906 89.390625 244.171875 C 88.382812 243.636719 87.363281 243.125 86.359375 242.625 C 85.3125 242.097656 84.257812 241.570312 83.214844 241.011719 C 84.234375 240.359375 85.089844 239.46875 85.695312 238.433594 C 86.691406 239.082031 87.695312 239.703125 88.691406 240.316406 C 89.410156 240.761719 90.128906 241.199219 90.839844 241.652344 Z M 95.058594 247.730469 C 94.460938 247.261719 93.84375 246.820312 93.210938 246.402344 C 92.253906 245.769531 91.253906 245.183594 90.238281 244.632812 C 90.84375 243.898438 91.367188 243.09375 91.753906 242.242188 C 93.359375 243.285156 95.175781 244.550781 96.980469 246.050781 C 96.4375 246.738281 95.792969 247.308594 95.058594 247.730469 Z M 102.5625 251.773438 C 101.695312 252.078125 100.808594 252.292969 99.90625 252.414062 C 98.667969 250.925781 97.292969 249.554688 95.796875 248.320312 C 96.558594 247.917969 97.242188 247.382812 97.789062 246.738281 C 99.476562 248.207031 101.128906 249.882812 102.5625 251.773438 Z M 105.578125 256.933594 C 104.777344 257.070312 103.976562 257.136719 103.175781 257.121094 C 102.386719 255.734375 101.492188 254.410156 100.511719 253.15625 C 101.398438 253.042969 102.277344 252.832031 103.113281 252.523438 C 103.445312 252.988281 103.757812 253.464844 104.058594 253.957031 C 104.644531 254.921875 105.15625 255.917969 105.578125 256.933594 Z M 107.007812 262.113281 C 106.46875 262.058594 105.933594 261.972656 105.40625 261.855469 C 104.894531 260.5 104.296875 259.183594 103.613281 257.914062 C 104.378906 257.925781 105.140625 257.863281 105.890625 257.714844 C 106.433594 259.167969 106.808594 260.644531 107.007812 262.113281 Z M 107.105469 262.984375 C 107.246094 264.496094 107.195312 265.988281 106.949219 267.417969 C 106.660156 265.835938 106.25 264.277344 105.730469 262.761719 C 106.1875 262.859375 106.644531 262.9375 107.105469 262.984375 Z M 112.742188 140.859375 L 112.671875 140.910156 C 112.214844 141.28125 111.53125 141.210938 111.160156 140.753906 L 109.785156 139.0625 C 109.414062 138.605469 109.488281 137.925781 109.945312 137.554688 L 110.015625 137.5 C 110.472656 137.128906 111.152344 137.199219 111.527344 137.660156 L 112.898438 139.347656 C 113.273438 139.804688 113.199219 140.484375 112.742188 140.859375 Z M 124.476562 135.640625 C 124.914062 136.035156 125.355469 136.445312 125.792969 136.875 C 125.816406 136.386719 125.820312 135.898438 125.8125 135.410156 C 125.40625 135.226562 124.992188 135.070312 124.566406 134.925781 C 124.179688 134.792969 124.496094 134.382812 124.8125 134.464844 C 125.144531 134.554688 125.46875 134.648438 125.792969 134.757812 C 125.765625 134.074219 125.699219 133.386719 125.609375 132.707031 C 124.980469 133.21875 124.175781 133.5 123.34375 133.558594 C 123.246094 133.566406 123.148438 133.570312 123.046875 133.570312 C 122.890625 133.578125 122.734375 133.570312 122.578125 133.554688 C 122.394531 133.539062 122.21875 133.511719 122.039062 133.476562 C 121.554688 133.382812 121.085938 133.207031 120.664062 132.960938 C 118.039062 134.207031 114.933594 134.195312 111.914062 134.191406 C 111.675781 134.191406 111.445312 134.1875 111.207031 134.1875 C 108.082031 134.1875 104.917969 134.292969 102.417969 135.898438 C 100.988281 136.820312 99.828125 138.210938 98.710938 139.554688 C 97.203125 141.367188 95.644531 143.242188 93.359375 144.058594 C 93.140625 144.140625 92.914062 144.207031 92.691406 144.277344 C 92.023438 144.480469 91.390625 144.671875 90.976562 145.109375 C 90.242188 145.890625 90.488281 147.265625 91.140625 148.089844 C 91.402344 148.414062 91.726562 148.707031 92.125 148.984375 C 93.839844 147.199219 95.863281 145.691406 97.921875 144.585938 C 98.128906 144.46875 98.398438 144.6875 98.167969 144.859375 C 96.191406 146.351562 94.289062 148.007812 92.652344 149.871094 C 92.375 150.191406 92.109375 150.511719 91.851562 150.839844 C 91.847656 150.84375 91.84375 150.847656 91.839844 150.851562 C 91.414062 151.523438 91.09375 152.222656 90.890625 152.945312 C 90.320312 154.96875 90.734375 157.09375 91.972656 158.496094 C 92.558594 159.160156 93.355469 159.679688 94.289062 160.023438 C 96.890625 160.171875 99.386719 159.863281 101.5 158.160156 C 103.238281 156.757812 104.425781 154.753906 104.941406 152.601562 C 104.996094 152.375 105.40625 152.398438 105.382812 152.648438 C 104.9375 157.671875 99.953125 161.976562 94.898438 161.039062 C 93.804688 164.410156 91.289062 167.191406 88.851562 169.882812 C 88.195312 170.605469 87.519531 171.351562 86.890625 172.089844 C 78.726562 181.671875 75.203125 195.320312 77.699219 207.710938 C 77.730469 207.863281 77.675781 208.023438 77.5625 208.125 C 76.761719 208.871094 76.023438 209.667969 75.351562 210.507812 C 76.179688 212.609375 77.6875 214.0625 79.578125 215.175781 C 79.890625 214.988281 80.210938 214.824219 80.546875 214.6875 C 80.269531 213.769531 80.234375 212.789062 80.507812 211.910156 C 80.578125 211.691406 81.011719 211.625 81.042969 211.902344 C 81.167969 212.921875 81.230469 213.878906 81.628906 214.84375 C 81.710938 215.050781 81.808594 215.25 81.910156 215.441406 C 82.078125 215.589844 82.253906 215.730469 82.4375 215.851562 C 83.785156 216.757812 85.488281 217.054688 86.972656 217.222656 C 90.078125 217.582031 93.300781 217.535156 96.414062 217.492188 C 101.449219 217.421875 106.652344 217.347656 111.511719 218.964844 L 111.664062 219.015625 C 112.1875 219.1875 112.679688 219.355469 113.164062 219.320312 C 113.5625 219.292969 114.011719 219.050781 114.109375 218.691406 C 111.820312 216.710938 109.46875 215.316406 106.324219 214.613281 C 105.980469 214.535156 106.226562 214.152344 106.488281 214.167969 C 109.375 214.332031 112.53125 215.601562 114.65625 217.722656 C 115.4375 217.929688 116.246094 218.09375 117.046875 218.21875 C 117.550781 218.296875 118.039062 218.234375 118.269531 218.0625 C 118.351562 218.003906 118.390625 217.941406 118.402344 217.851562 C 118.425781 217.710938 118.34375 217.519531 118.15625 217.265625 C 117.640625 216.558594 116.9375 215.929688 115.875 215.226562 C 113.851562 213.894531 111.53125 212.957031 109.109375 212.472656 C 107.839844 212.21875 106.539062 212.085938 105.238281 212.085938 L 105.144531 212.085938 C 101.808594 214.085938 97.699219 214.410156 94.027344 213.015625 C 93.566406 212.84375 93.914062 212.3125 94.3125 212.4375 C 97.785156 213.503906 101.425781 213.105469 104.59375 211.425781 C 104.617188 211.382812 104.644531 211.34375 104.683594 211.308594 C 106.679688 209.503906 108.265625 207.144531 109.28125 204.492188 C 110.761719 200.613281 111.132812 196.046875 110.390625 190.917969 C 110.324219 190.46875 110.25 190.023438 110.179688 189.574219 C 109.941406 188.117188 109.699219 186.609375 109.71875 185.097656 C 109.734375 183.660156 109.980469 182.195312 110.464844 180.621094 C 107.773438 179.878906 105.328125 177.25 104.957031 174.726562 C 104.914062 174.421875 105.453125 174.292969 105.574219 174.5625 C 106.253906 176.070312 107.089844 177.421875 108.464844 178.402344 C 109.667969 179.265625 110.898438 179.535156 112.226562 179.8125 L 114.644531 179.773438 C 119.5 179.683594 121.355469 181.289062 122.058594 182.585938 C 122.351562 183.117188 122.445312 183.597656 122.476562 183.886719 C 122.527344 184.378906 122.480469 184.882812 122.4375 185.367188 C 122.394531 185.847656 122.351562 186.292969 122.402344 186.675781 C 122.550781 186.636719 122.699219 186.5625 122.832031 186.46875 C 123.175781 186.230469 123.324219 185.839844 123.582031 185.523438 C 123.75 185.316406 124.117188 185.378906 124.199219 185.621094 C 124.410156 186.246094 123.722656 186.855469 123.230469 187.117188 C 123.035156 187.21875 122.835938 187.289062 122.628906 187.332031 C 122.675781 187.398438 122.726562 187.464844 122.792969 187.523438 C 123.097656 187.804688 123.480469 187.804688 123.746094 187.757812 C 124.285156 187.664062 124.800781 187.289062 125.03125 186.828125 C 125.527344 185.859375 125.289062 184.644531 125.019531 183.691406 C 123.796875 179.324219 120.980469 175.550781 118.257812 171.898438 C 117.148438 170.410156 115.996094 168.863281 114.960938 167.296875 C 114.324219 166.328125 113.625 165.1875 113.417969 163.886719 C 113.175781 162.351562 113.597656 160.699219 114.753906 158.691406 C 115.878906 156.746094 117.3125 154.984375 118.699219 153.277344 C 119.867188 151.847656 121.070312 150.367188 122.070312 148.796875 C 123.417969 146.683594 124.414062 144.347656 125.042969 141.917969 C 123.226562 143.109375 120.199219 142.761719 119.492188 140.472656 C 119.410156 140.207031 119.867188 140.175781 120.003906 140.292969 C 120.960938 141.125 121.914062 141.882812 123.261719 141.589844 C 124 141.429688 124.546875 140.996094 125.027344 140.472656 C 124.273438 139.171875 123.445312 137.917969 122.636719 136.617188 C 122.46875 136.34375 122.992188 136.175781 123.164062 136.351562 C 124.035156 137.257812 124.835938 138.292969 125.550781 139.410156 C 125.632812 138.871094 125.695312 138.332031 125.738281 137.792969 C 125.179688 137.160156 124.605469 136.542969 124.023438 135.933594 C 123.78125 135.683594 124.273438 135.457031 124.476562 135.640625 " fill-opacity="1" fill-rule="nonzero"/><g fill="#ffffff" fill-opacity="1"><g transform="translate(138.345509, 177.936319)"><g><path d="M 5.40625 0 L 1.84375 -35.359375 L 7.171875 -35.359375 L 9.3125 -14.109375 L 13.71875 -29.640625 L 17.40625 -29.640625 L 21.796875 -14.09375 L 23.96875 -35.359375 L 29.296875 -35.359375 L 25.6875 0 C 25.6875 0 23.875 0 20.25 0 L 15.5625 -16.671875 L 10.828125 0 C 10.828125 0 9.019531 0 5.40625 0 Z M 5.40625 0 "/></g></g></g><g fill="#ffffff" fill-opacity="1"><g transform="translate(169.384171, 177.936319)"><g><path d="M 8.59375 -11.4375 L 8.59375 -9.546875 C 8.59375 -9.023438 8.71875 -8.492188 8.96875 -7.953125 C 9.21875 -7.410156 9.585938 -6.882812 10.078125 -6.375 C 10.578125 -5.875 11.273438 -5.460938 12.171875 -5.140625 C 13.078125 -4.828125 14.101562 -4.671875 15.25 -4.671875 L 15.828125 -4.671875 C 17.765625 -4.671875 19.242188 -4.929688 20.265625 -5.453125 C 21.285156 -5.972656 21.9375 -6.597656 22.21875 -7.328125 L 27.171875 -5.40625 C 26.453125 -3.53125 25.117188 -2.054688 23.171875 -0.984375 C 21.222656 0.0859375 18.773438 0.625 15.828125 0.625 L 15.25 0.625 C 13.4375 0.625 11.757812 0.335938 10.21875 -0.234375 C 8.6875 -0.816406 7.425781 -1.585938 6.4375 -2.546875 C 5.445312 -3.503906 4.671875 -4.585938 4.109375 -5.796875 C 3.554688 -7.015625 3.28125 -8.265625 3.28125 -9.546875 L 3.28125 -16.390625 C 3.28125 -19.335938 4.34375 -21.753906 6.46875 -23.640625 C 8.601562 -25.535156 11.53125 -26.484375 15.25 -26.484375 L 15.828125 -26.484375 C 19.554688 -26.484375 22.472656 -25.535156 24.578125 -23.640625 C 26.691406 -21.753906 27.75 -19.335938 27.75 -16.390625 L 27.75 -11.4375 Z M 8.59375 -16.75 L 22.453125 -16.75 C 22.398438 -17.582031 22.171875 -18.300781 21.765625 -18.90625 C 21.359375 -19.519531 20.820312 -19.984375 20.15625 -20.296875 C 19.5 -20.617188 18.816406 -20.847656 18.109375 -20.984375 C 17.398438 -21.117188 16.640625 -21.1875 15.828125 -21.1875 L 15.25 -21.1875 C 14.457031 -21.1875 13.707031 -21.117188 13 -20.984375 C 12.289062 -20.847656 11.597656 -20.617188 10.921875 -20.296875 C 10.253906 -19.984375 9.707031 -19.519531 9.28125 -18.90625 C 8.863281 -18.300781 8.632812 -17.582031 8.59375 -16.75 Z M 8.59375 -16.75 "/></g></g></g><g fill="#ffffff" fill-opacity="1"><g transform="translate(200.422833, 177.936319)"><g><path d="M 15.25 -26.484375 L 15.828125 -26.484375 C 17.785156 -26.484375 19.535156 -26.179688 21.078125 -25.578125 C 22.617188 -24.972656 23.867188 -24.140625 24.828125 -23.078125 C 25.785156 -22.015625 26.507812 -20.796875 27 -19.421875 C 27.5 -18.054688 27.75 -16.566406 27.75 -14.953125 L 27.75 -11.421875 C 27.75 -7.878906 26.679688 -4.984375 24.546875 -2.734375 C 22.410156 -0.492188 19.503906 0.625 15.828125 0.625 L 15.25 0.625 C 12.820312 0.625 10.601562 -0.0351562 8.59375 -1.359375 L 8.59375 0 L 3.28125 0 L 3.28125 -35.359375 L 8.59375 -35.359375 L 8.59375 -24.90625 C 10.457031 -25.957031 12.675781 -26.484375 15.25 -26.484375 Z M 8.59375 -11.421875 C 8.59375 -9.535156 9.238281 -7.9375 10.53125 -6.625 C 11.820312 -5.320312 13.394531 -4.671875 15.25 -4.671875 L 15.828125 -4.671875 C 16.859375 -4.671875 17.769531 -4.804688 18.5625 -5.078125 C 19.351562 -5.347656 19.988281 -5.703125 20.46875 -6.140625 C 20.945312 -6.578125 21.335938 -7.097656 21.640625 -7.703125 C 21.941406 -8.304688 22.148438 -8.90625 22.265625 -9.5 C 22.390625 -10.101562 22.453125 -10.742188 22.453125 -11.421875 L 22.453125 -14.953125 C 22.453125 -15.796875 22.347656 -16.566406 22.140625 -17.265625 C 21.941406 -17.960938 21.609375 -18.617188 21.140625 -19.234375 C 20.671875 -19.847656 19.984375 -20.328125 19.078125 -20.671875 C 18.179688 -21.015625 17.097656 -21.1875 15.828125 -21.1875 L 15.25 -21.1875 C 12.894531 -21.1875 11.195312 -20.617188 10.15625 -19.484375 C 9.113281 -18.347656 8.59375 -16.835938 8.59375 -14.953125 Z M 8.59375 -11.421875 "/></g></g></g><g fill="#ffffff" fill-opacity="1"><g transform="translate(231.461496, 177.936319)"><g><path d="M 20.90625 -27.453125 C 20.90625 -29.609375 19.210938 -30.6875 15.828125 -30.6875 L 15.25 -30.6875 C 13.613281 -30.6875 12.226562 -30.441406 11.09375 -29.953125 C 9.957031 -29.460938 9.210938 -28.914062 8.859375 -28.3125 L 4.3125 -30.984375 C 5.269531 -32.617188 6.75 -33.859375 8.75 -34.703125 C 10.757812 -35.554688 12.925781 -35.984375 15.25 -35.984375 L 15.828125 -35.984375 C 17.398438 -35.984375 18.800781 -35.789062 20.03125 -35.40625 C 21.269531 -35.03125 22.265625 -34.546875 23.015625 -33.953125 C 23.765625 -33.367188 24.382812 -32.691406 24.875 -31.921875 C 25.375 -31.148438 25.722656 -30.394531 25.921875 -29.65625 C 26.117188 -28.925781 26.21875 -28.191406 26.21875 -27.453125 L 26.21875 -26.515625 C 26.21875 -26.273438 26.179688 -25.96875 26.109375 -25.59375 C 26.046875 -25.21875 25.929688 -24.738281 25.765625 -24.15625 C 25.609375 -23.570312 25.335938 -22.957031 24.953125 -22.3125 C 24.566406 -21.664062 24.09375 -21.082031 23.53125 -20.5625 C 26.34375 -18.65625 27.75 -15.679688 27.75 -11.640625 L 27.75 -11.1875 C 27.75 -9.488281 27.515625 -7.9375 27.046875 -6.53125 C 26.585938 -5.125 25.882812 -3.875 24.9375 -2.78125 C 24 -1.695312 22.753906 -0.859375 21.203125 -0.265625 C 19.660156 0.328125 17.867188 0.625 15.828125 0.625 L 15.25 0.625 C 13.46875 0.625 11.859375 0.429688 10.421875 0.046875 C 8.992188 -0.335938 7.847656 -0.828125 6.984375 -1.421875 C 6.117188 -2.023438 5.398438 -2.722656 4.828125 -3.515625 C 4.253906 -4.304688 3.851562 -5.070312 3.625 -5.8125 C 3.394531 -6.5625 3.28125 -7.316406 3.28125 -8.078125 L 8.59375 -8.078125 C 8.59375 -7.234375 9.128906 -6.453125 10.203125 -5.734375 C 11.273438 -5.023438 12.957031 -4.671875 15.25 -4.671875 L 15.828125 -4.671875 C 18.273438 -4.671875 19.988281 -5.222656 20.96875 -6.328125 C 21.957031 -7.441406 22.453125 -9.0625 22.453125 -11.1875 L 22.453125 -11.640625 C 22.453125 -13.460938 21.960938 -14.851562 20.984375 -15.8125 C 20.003906 -16.769531 18.3125 -17.253906 15.90625 -17.265625 L 10.09375 -17.265625 L 10.09375 -22.578125 L 15.90625 -22.578125 C 17.207031 -22.578125 18.363281 -23 19.375 -23.84375 C 20.394531 -24.695312 20.90625 -25.585938 20.90625 -26.515625 Z M 20.90625 -27.453125 "/></g></g></g><g fill="#ffffff" fill-opacity="1"><g transform="translate(137.471904, 216.436358)"><g><path d="M 11.046875 -12.828125 L 10.703125 -12.828125 C 10.023438 -12.828125 9.34375 -12.644531 8.65625 -12.28125 C 7.96875 -11.914062 7.375 -11.457031 6.875 -10.90625 C 6.382812 -10.363281 5.984375 -9.757812 5.671875 -9.09375 C 5.359375 -8.425781 5.203125 -7.804688 5.203125 -7.234375 L 5.203125 0 L 1.984375 0 L 1.984375 -15.65625 L 5.203125 -15.65625 L 5.203125 -13.734375 C 6.898438 -15.265625 8.734375 -16.03125 10.703125 -16.03125 L 11.046875 -16.03125 C 13.648438 -16.03125 15.515625 -15.289062 16.640625 -13.8125 L 14.109375 -11.859375 C 13.609375 -12.503906 12.585938 -12.828125 11.046875 -12.828125 Z M 11.046875 -12.828125 "/></g></g></g><g fill="#ffffff" fill-opacity="1"><g transform="translate(156.252977, 216.436358)"><g><path d="M 5.203125 -6.921875 L 5.203125 -5.78125 C 5.203125 -5.457031 5.273438 -5.132812 5.421875 -4.8125 C 5.578125 -4.488281 5.804688 -4.171875 6.109375 -3.859375 C 6.410156 -3.554688 6.832031 -3.304688 7.375 -3.109375 C 7.914062 -2.921875 8.535156 -2.828125 9.234375 -2.828125 L 9.578125 -2.828125 C 10.753906 -2.828125 11.648438 -2.984375 12.265625 -3.296875 C 12.878906 -3.617188 13.273438 -4 13.453125 -4.4375 L 16.4375 -3.265625 C 16 -2.140625 15.191406 -1.25 14.015625 -0.59375 C 12.835938 0.0507812 11.359375 0.375 9.578125 0.375 L 9.234375 0.375 C 8.128906 0.375 7.113281 0.203125 6.1875 -0.140625 C 5.257812 -0.492188 4.492188 -0.960938 3.890625 -1.546875 C 3.296875 -2.128906 2.828125 -2.785156 2.484375 -3.515625 C 2.148438 -4.242188 1.984375 -5 1.984375 -5.78125 L 1.984375 -9.921875 C 1.984375 -11.703125 2.628906 -13.164062 3.921875 -14.3125 C 5.210938 -15.457031 6.984375 -16.03125 9.234375 -16.03125 L 9.578125 -16.03125 C 11.828125 -16.03125 13.59375 -15.457031 14.875 -14.3125 C 16.15625 -13.164062 16.796875 -11.703125 16.796875 -9.921875 L 16.796875 -6.921875 Z M 5.203125 -10.125 L 13.578125 -10.125 C 13.554688 -10.632812 13.421875 -11.070312 13.171875 -11.4375 C 12.929688 -11.8125 12.609375 -12.09375 12.203125 -12.28125 C 11.796875 -12.476562 11.378906 -12.617188 10.953125 -12.703125 C 10.523438 -12.785156 10.066406 -12.828125 9.578125 -12.828125 L 9.234375 -12.828125 C 8.753906 -12.828125 8.300781 -12.785156 7.875 -12.703125 C 7.445312 -12.617188 7.023438 -12.476562 6.609375 -12.28125 C 6.203125 -12.09375 5.867188 -11.8125 5.609375 -11.4375 C 5.359375 -11.070312 5.222656 -10.632812 5.203125 -10.125 Z M 5.203125 -10.125 "/></g></g></g><g fill="#ffffff" fill-opacity="1"><g transform="translate(175.034051, 216.436358)"><g><path d="M 9.578125 -2.828125 C 10.765625 -2.828125 11.726562 -2.953125 12.46875 -3.203125 C 13.207031 -3.460938 13.578125 -3.785156 13.578125 -4.171875 L 13.578125 -4.828125 C 13.578125 -4.960938 13.492188 -5.132812 13.328125 -5.34375 C 13.160156 -5.550781 12.953125 -5.691406 12.703125 -5.765625 L 5.90625 -7.53125 C 5.332031 -7.6875 4.820312 -7.921875 4.375 -8.234375 C 3.925781 -8.554688 3.578125 -8.914062 3.328125 -9.3125 C 3.085938 -9.707031 2.90625 -10.097656 2.78125 -10.484375 C 2.664062 -10.867188 2.609375 -11.238281 2.609375 -11.59375 L 2.609375 -11.765625 C 2.609375 -12.140625 2.660156 -12.503906 2.765625 -12.859375 C 2.867188 -13.222656 3.066406 -13.601562 3.359375 -14 C 3.660156 -14.394531 4.046875 -14.738281 4.515625 -15.03125 C 4.984375 -15.320312 5.617188 -15.5625 6.421875 -15.75 C 7.234375 -15.9375 8.171875 -16.03125 9.234375 -16.03125 L 9.578125 -16.03125 C 10.878906 -16.03125 12.144531 -15.757812 13.375 -15.21875 C 14.613281 -14.675781 15.546875 -13.910156 16.171875 -12.921875 L 13.453125 -11.21875 C 13.191406 -11.613281 12.707031 -11.976562 12 -12.3125 C 11.289062 -12.65625 10.484375 -12.828125 9.578125 -12.828125 L 9.234375 -12.828125 C 8.734375 -12.828125 8.273438 -12.796875 7.859375 -12.734375 C 7.441406 -12.671875 7.113281 -12.59375 6.875 -12.5 C 6.632812 -12.414062 6.425781 -12.320312 6.25 -12.21875 C 6.082031 -12.125 5.96875 -12.035156 5.90625 -11.953125 C 5.851562 -11.878906 5.828125 -11.816406 5.828125 -11.765625 L 5.828125 -11.59375 C 5.828125 -11.476562 5.894531 -11.3125 6.03125 -11.09375 C 6.164062 -10.882812 6.378906 -10.738281 6.671875 -10.65625 L 13.5 -8.875 C 14.425781 -8.644531 15.207031 -8.140625 15.84375 -7.359375 C 16.476562 -6.578125 16.796875 -5.734375 16.796875 -4.828125 L 16.796875 -4.171875 C 16.796875 -3.378906 16.601562 -2.679688 16.21875 -2.078125 C 15.832031 -1.472656 15.296875 -0.992188 14.609375 -0.640625 C 13.921875 -0.296875 13.15625 -0.0390625 12.3125 0.125 C 11.476562 0.289062 10.566406 0.375 9.578125 0.375 L 8.609375 0.375 C 8.035156 0.375 7.441406 0.300781 6.828125 0.15625 C 6.222656 0.0195312 5.632812 -0.195312 5.0625 -0.5 C 4.488281 -0.8125 3.972656 -1.175781 3.515625 -1.59375 C 3.054688 -2.007812 2.6875 -2.519531 2.40625 -3.125 C 2.125 -3.726562 1.984375 -4.375 1.984375 -5.0625 L 5.203125 -5.0625 C 5.203125 -4.914062 5.242188 -4.738281 5.328125 -4.53125 C 5.410156 -4.320312 5.554688 -4.078125 5.765625 -3.796875 C 5.984375 -3.523438 6.335938 -3.296875 6.828125 -3.109375 C 7.328125 -2.921875 7.921875 -2.828125 8.609375 -2.828125 Z M 9.578125 -2.828125 "/></g></g></g><g fill="#ffffff" fill-opacity="1"><g transform="translate(193.815124, 216.436358)"><g><path d="M 9.78125 -12.8125 L 8.96875 -12.8125 C 6.457031 -12.8125 5.203125 -11.382812 5.203125 -8.53125 L 5.203125 -7.390625 C 5.203125 -4.347656 6.46875 -2.828125 9 -2.828125 L 9.71875 -2.828125 C 10.957031 -2.828125 11.910156 -3.1875 12.578125 -3.90625 C 13.242188 -4.625 13.578125 -5.78125 13.578125 -7.375 L 13.578125 -8.546875 C 13.578125 -11.390625 12.3125 -12.8125 9.78125 -12.8125 Z M 16.796875 -8.546875 L 16.796875 -7.375 C 16.796875 -6.269531 16.648438 -5.25 16.359375 -4.3125 C 16.066406 -3.382812 15.640625 -2.566406 15.078125 -1.859375 C 14.515625 -1.148438 13.773438 -0.597656 12.859375 -0.203125 C 11.941406 0.179688 10.894531 0.375 9.71875 0.375 L 9 0.375 C 7.84375 0.375 6.804688 0.175781 5.890625 -0.21875 C 4.984375 -0.625 4.25 -1.179688 3.6875 -1.890625 C 3.125 -2.609375 2.695312 -3.429688 2.40625 -4.359375 C 2.125 -5.296875 1.984375 -6.304688 1.984375 -7.390625 L 1.984375 -8.53125 C 1.984375 -10.78125 2.582031 -12.585938 3.78125 -13.953125 C 4.988281 -15.328125 6.71875 -16.015625 8.96875 -16.015625 L 9.78125 -16.015625 C 12.03125 -16.015625 13.757812 -15.328125 14.96875 -13.953125 C 16.1875 -12.585938 16.796875 -10.785156 16.796875 -8.546875 Z M 16.796875 -8.546875 "/></g></g></g><g fill="#ffffff" fill-opacity="1"><g transform="translate(212.596197, 216.436358)"><g><path d="M 9.1875 -2.828125 C 9.695312 -2.828125 10.191406 -2.953125 10.671875 -3.203125 C 11.148438 -3.460938 11.554688 -3.773438 11.890625 -4.140625 C 12.222656 -4.515625 12.519531 -4.914062 12.78125 -5.34375 C 13.050781 -5.769531 13.25 -6.15625 13.375 -6.5 C 13.5 -6.851562 13.566406 -7.128906 13.578125 -7.328125 L 13.578125 -15.65625 L 16.796875 -15.65625 L 16.796875 0 L 13.578125 0 L 13.578125 -1.421875 C 12.148438 -0.222656 10.6875 0.375 9.1875 0.375 L 8.796875 0.375 C 7.640625 0.375 6.613281 0.207031 5.71875 -0.125 C 4.820312 -0.457031 4.109375 -0.914062 3.578125 -1.5 C 3.046875 -2.082031 2.644531 -2.726562 2.375 -3.4375 C 2.113281 -4.15625 1.984375 -4.9375 1.984375 -5.78125 L 1.984375 -15.65625 L 5.203125 -15.65625 L 5.203125 -5.78125 C 5.203125 -5.375 5.25 -5.003906 5.34375 -4.671875 C 5.445312 -4.347656 5.625 -4.039062 5.875 -3.75 C 6.125 -3.457031 6.492188 -3.226562 6.984375 -3.0625 C 7.484375 -2.90625 8.085938 -2.828125 8.796875 -2.828125 Z M 9.1875 -2.828125 "/></g></g></g><g fill="#ffffff" fill-opacity="1"><g transform="translate(231.37727, 216.436358)"><g><path d="M 11.046875 -12.828125 L 10.703125 -12.828125 C 10.023438 -12.828125 9.34375 -12.644531 8.65625 -12.28125 C 7.96875 -11.914062 7.375 -11.457031 6.875 -10.90625 C 6.382812 -10.363281 5.984375 -9.757812 5.671875 -9.09375 C 5.359375 -8.425781 5.203125 -7.804688 5.203125 -7.234375 L 5.203125 0 L 1.984375 0 L 1.984375 -15.65625 L 5.203125 -15.65625 L 5.203125 -13.734375 C 6.898438 -15.265625 8.734375 -16.03125 10.703125 -16.03125 L 11.046875 -16.03125 C 13.648438 -16.03125 15.515625 -15.289062 16.640625 -13.8125 L 14.109375 -11.859375 C 13.609375 -12.503906 12.585938 -12.828125 11.046875 -12.828125 Z M 11.046875 -12.828125 "/></g></g></g><g fill="#ffffff" fill-opacity="1"><g transform="translate(250.158343, 216.436358)"><g><path d="M 13.421875 -11.4375 C 12.921875 -12.351562 11.640625 -12.8125 9.578125 -12.8125 L 9.234375 -12.8125 C 8.484375 -12.8125 7.84375 -12.710938 7.3125 -12.515625 C 6.78125 -12.316406 6.363281 -12.039062 6.0625 -11.6875 C 5.757812 -11.332031 5.539062 -10.9375 5.40625 -10.5 C 5.269531 -10.070312 5.203125 -9.585938 5.203125 -9.046875 L 5.203125 -6.609375 C 5.203125 -5.484375 5.582031 -4.570312 6.34375 -3.875 C 7.113281 -3.175781 8.078125 -2.828125 9.234375 -2.828125 L 9.578125 -2.828125 C 10.492188 -2.828125 11.296875 -2.953125 11.984375 -3.203125 C 12.679688 -3.453125 13.160156 -3.835938 13.421875 -4.359375 L 16.328125 -2.953125 C 15.804688 -1.878906 14.960938 -1.054688 13.796875 -0.484375 C 12.628906 0.0859375 11.222656 0.375 9.578125 0.375 L 9.234375 0.375 C 7.203125 0.375 5.484375 -0.28125 4.078125 -1.59375 C 2.679688 -2.914062 1.984375 -4.585938 1.984375 -6.609375 L 1.984375 -9.046875 C 1.984375 -11.078125 2.613281 -12.742188 3.875 -14.046875 C 5.132812 -15.359375 6.921875 -16.015625 9.234375 -16.015625 L 9.578125 -16.015625 C 11.453125 -16.015625 12.90625 -15.734375 13.9375 -15.171875 C 14.976562 -14.617188 15.78125 -13.800781 16.34375 -12.71875 Z M 13.421875 -11.4375 "/></g></g></g><g fill="#ffffff" fill-opacity="1"><g transform="translate(268.939416, 216.436358)"><g><path d="M 5.203125 -6.921875 L 5.203125 -5.78125 C 5.203125 -5.457031 5.273438 -5.132812 5.421875 -4.8125 C 5.578125 -4.488281 5.804688 -4.171875 6.109375 -3.859375 C 6.410156 -3.554688 6.832031 -3.304688 7.375 -3.109375 C 7.914062 -2.921875 8.535156 -2.828125 9.234375 -2.828125 L 9.578125 -2.828125 C 10.753906 -2.828125 11.648438 -2.984375 12.265625 -3.296875 C 12.878906 -3.617188 13.273438 -4 13.453125 -4.4375 L 16.4375 -3.265625 C 16 -2.140625 15.191406 -1.25 14.015625 -0.59375 C 12.835938 0.0507812 11.359375 0.375 9.578125 0.375 L 9.234375 0.375 C 8.128906 0.375 7.113281 0.203125 6.1875 -0.140625 C 5.257812 -0.492188 4.492188 -0.960938 3.890625 -1.546875 C 3.296875 -2.128906 2.828125 -2.785156 2.484375 -3.515625 C 2.148438 -4.242188 1.984375 -5 1.984375 -5.78125 L 1.984375 -9.921875 C 1.984375 -11.703125 2.628906 -13.164062 3.921875 -14.3125 C 5.210938 -15.457031 6.984375 -16.03125 9.234375 -16.03125 L 9.578125 -16.03125 C 11.828125 -16.03125 13.59375 -15.457031 14.875 -14.3125 C 16.15625 -13.164062 16.796875 -11.703125 16.796875 -9.921875 L 16.796875 -6.921875 Z M 5.203125 -10.125 L 13.578125 -10.125 C 13.554688 -10.632812 13.421875 -11.070312 13.171875 -11.4375 C 12.929688 -11.8125 12.609375 -12.09375 12.203125 -12.28125 C 11.796875 -12.476562 11.378906 -12.617188 10.953125 -12.703125 C 10.523438 -12.785156 10.066406 -12.828125 9.578125 -12.828125 L 9.234375 -12.828125 C 8.753906 -12.828125 8.300781 -12.785156 7.875 -12.703125 C 7.445312 -12.617188 7.023438 -12.476562 6.609375 -12.28125 C 6.203125 -12.09375 5.867188 -11.8125 5.609375 -11.4375 C 5.359375 -11.070312 5.222656 -10.632812 5.203125 -10.125 Z M 5.203125 -10.125 "/></g></g></g><g fill="#ffffff" fill-opacity="1"><g transform="translate(287.72049, 216.436358)"><g><path d="M 9.578125 -2.828125 C 10.765625 -2.828125 11.726562 -2.953125 12.46875 -3.203125 C 13.207031 -3.460938 13.578125 -3.785156 13.578125 -4.171875 L 13.578125 -4.828125 C 13.578125 -4.960938 13.492188 -5.132812 13.328125 -5.34375 C 13.160156 -5.550781 12.953125 -5.691406 12.703125 -5.765625 L 5.90625 -7.53125 C 5.332031 -7.6875 4.820312 -7.921875 4.375 -8.234375 C 3.925781 -8.554688 3.578125 -8.914062 3.328125 -9.3125 C 3.085938 -9.707031 2.90625 -10.097656 2.78125 -10.484375 C 2.664062 -10.867188 2.609375 -11.238281 2.609375 -11.59375 L 2.609375 -11.765625 C 2.609375 -12.140625 2.660156 -12.503906 2.765625 -12.859375 C 2.867188 -13.222656 3.066406 -13.601562 3.359375 -14 C 3.660156 -14.394531 4.046875 -14.738281 4.515625 -15.03125 C 4.984375 -15.320312 5.617188 -15.5625 6.421875 -15.75 C 7.234375 -15.9375 8.171875 -16.03125 9.234375 -16.03125 L 9.578125 -16.03125 C 10.878906 -16.03125 12.144531 -15.757812 13.375 -15.21875 C 14.613281 -14.675781 15.546875 -13.910156 16.171875 -12.921875 L 13.453125 -11.21875 C 13.191406 -11.613281 12.707031 -11.976562 12 -12.3125 C 11.289062 -12.65625 10.484375 -12.828125 9.578125 -12.828125 L 9.234375 -12.828125 C 8.734375 -12.828125 8.273438 -12.796875 7.859375 -12.734375 C 7.441406 -12.671875 7.113281 -12.59375 6.875 -12.5 C 6.632812 -12.414062 6.425781 -12.320312 6.25 -12.21875 C 6.082031 -12.125 5.96875 -12.035156 5.90625 -11.953125 C 5.851562 -11.878906 5.828125 -11.816406 5.828125 -11.765625 L 5.828125 -11.59375 C 5.828125 -11.476562 5.894531 -11.3125 6.03125 -11.09375 C 6.164062 -10.882812 6.378906 -10.738281 6.671875 -10.65625 L 13.5 -8.875 C 14.425781 -8.644531 15.207031 -8.140625 15.84375 -7.359375 C 16.476562 -6.578125 16.796875 -5.734375 16.796875 -4.828125 L 16.796875 -4.171875 C 16.796875 -3.378906 16.601562 -2.679688 16.21875 -2.078125 C 15.832031 -1.472656 15.296875 -0.992188 14.609375 -0.640625 C 13.921875 -0.296875 13.15625 -0.0390625 12.3125 0.125 C 11.476562 0.289062 10.566406 0.375 9.578125 0.375 L 8.609375 0.375 C 8.035156 0.375 7.441406 0.300781 6.828125 0.15625 C 6.222656 0.0195312 5.632812 -0.195312 5.0625 -0.5 C 4.488281 -0.8125 3.972656 -1.175781 3.515625 -1.59375 C 3.054688 -2.007812 2.6875 -2.519531 2.40625 -3.125 C 2.125 -3.726562 1.984375 -4.375 1.984375 -5.0625 L 5.203125 -5.0625 C 5.203125 -4.914062 5.242188 -4.738281 5.328125 -4.53125 C 5.410156 -4.320312 5.554688 -4.078125 5.765625 -3.796875 C 5.984375 -3.523438 6.335938 -3.296875 6.828125 -3.109375 C 7.328125 -2.921875 7.921875 -2.828125 8.609375 -2.828125 Z M 9.578125 -2.828125 "/></g></g></g></svg>